<?xml version="1.0" standalone="no"?>
<!DOCTYPE svg PUBLIC "-//W3C//DTD SVG 20010904//EN"
 "http://www.w3.org/TR/2001/REC-SVG-20010904/DTD/svg10.dtd">
<svg version="1.0" xmlns="http://www.w3.org/2000/svg"
 width="512.000000pt" height="512.000000pt" viewBox="0 0 512.000000 512.000000"
 preserveAspectRatio="xMidYMid meet">

<g transform="translate(0.000000,512.000000) scale(0.100000,-0.100000)"
fill="#000000" stroke="none">
<path d="M1057 3417 l-97 -104 796 -852 c437 -468 799 -851 804 -851 5 0 367
383 804 851 l796 852 -97 104 c-78 84 -99 101 -109 91 -7 -7 -321 -344 -698
-748 -378 -404 -691 -735 -696 -735 -5 0 -321 333 -701 740 -380 407 -694 744
-698 748 -4 4 -51 -39 -104 -96z"/>
</g>
</svg>
