<?xml version="1.0" standalone="no"?>
<!DOCTYPE svg PUBLIC "-//W3C//DTD SVG 20010904//EN"
 "http://www.w3.org/TR/2001/REC-SVG-20010904/DTD/svg10.dtd">
<svg version="1.0" xmlns="http://www.w3.org/2000/svg"
 width="512.000000pt" height="512.000000pt" viewBox="0 0 512.000000 512.000000"
 preserveAspectRatio="xMidYMid meet">

<g transform="translate(0.000000,512.000000) scale(0.100000,-0.100000)"
fill="#000000" stroke="none">
<path d="M1756 2659 l-796 -852 97 -104 c53 -57 100 -100 104 -96 4 4 318 341
698 748 380 407 696 740 701 740 5 0 318 -331 696 -735 377 -404 691 -741 698
-748 10 -10 31 7 109 91 l97 104 -796 852 c-437 468 -799 851 -804 851 -5 0
-367 -383 -804 -851z"/>
</g>
</svg>
