<svg xmlns="http://www.w3.org/2000/svg" enable-background="new 0 0 512 512" viewBox="0 0 512 512" id="teacher"><path fill="#a4c2f7" d="M467.957,466.463v40.204H44.043v-40.204c0-78.075,63.304-141.378,141.378-141.378h141.156
			C404.653,325.085,467.957,388.389,467.957,466.463z"></path><rect width="105.992" height="107.427" x="203.037" y="261.94" fill="#e8edfd"></rect><path fill="#e8edfd" d="M380.353,181.516c0,11.396-9.221,20.721-20.721,20.721l-1.868,14.524
			c-6.579,51.173-50.143,89.496-101.737,89.496l0,0c-51.594,0-95.159-38.323-101.737-89.496l-1.868-14.524
			c-11.5,0-20.721-9.325-20.721-20.721c0-11.5,9.221-20.721,20.721-20.721v-22.388c0-55.244,41.756-103.439,96.891-106.907
			c60.345-3.796,110.318,43.985,110.318,103.393v25.901C371.132,160.795,380.353,170.015,380.353,181.516z"></path><path fill="#a4c2f7" d="M236.964,5.334c-52.435,0-94.942,42.507-94.942,94.942v50.138c0,5.722,4.639,10.361,10.361,10.361
			l0,0c5.722,0,10.361-4.639,10.361-10.361v-10.361c0.485-16.843,10.106-32.083,25.103-39.763c3.478-1.99,7.79-1.796,11.075,0.498
			c16.64,11.639,36.83,17.082,57.065,15.385c20.205,1.685,40.363-3.75,56.983-15.365c3.293-2.322,7.633-2.524,11.127-0.518
			c15.002,7.668,24.636,22.901,25.135,39.742v10.361c0,5.722,4.639,10.361,10.361,10.361l0,0c5.722,0,10.361-4.639,10.361-10.361
			v-50.118c0-52.435-42.507-94.942-94.942-94.942h-38.046V5.334z"></path><polygon fill="#e8edfd" points="290.956 472.682 266.523 506.666 245.532 506.666 221.044 472.682 244.366 403.825 267.689 403.825"></polygon><path fill="#e8edfd" d="M267.674,403.852h-23.305c-7.459-7.466-11.65-17.588-11.653-28.141v-12.643h46.61v12.643
			C279.331,386.267,275.138,396.39,267.674,403.852z"></path><path fill="#e8edfd" d="M340.418 331.725l-32.547 45.79c-3.617 5.089-10.421 6.752-15.977 3.906l-35.857-18.365 38.741-38.741c6.558-6.558 15.687-9.867 24.923-9.036l13.713 1.235C340.836 317.181 344.736 325.65 340.418 331.725zM171.649 331.721l32.547 45.79c3.617 5.089 10.42 6.752 15.977 3.906l35.857-18.365-38.741-38.741c-6.558-6.558-15.687-9.867-24.923-9.036l-13.713 1.235C171.231 317.177 167.33 325.646 171.649 331.721z"></path><path fill="#428dff" d="M346.576,321.191c-2.166-6.111-7.085-9.483-12.683-9.99l-13.716-1.235
			c-1.95-0.175-3.889-0.139-5.813-0.007v-15.687c25.957-16.768,44.514-44.345,48.69-76.832l1.325-10.302
			c12.109-2.24,21.308-12.875,21.308-25.622c0-9.605-5.283-17.92-13.04-22.437c1.662-2.489,2.639-5.474,2.639-8.685v-50.117
			c0-55.292-44.982-100.276-100.273-100.276h-38.047c-55.292,0-100.276,44.985-100.276,100.276v50.138
			c0,3.218,0.98,6.21,2.648,8.703c-7.718,4.528-12.968,12.822-12.968,22.399c0,12.747,9.198,23.383,21.308,25.622l1.325,10.302
			c4.176,32.493,22.738,60.074,48.703,76.841v15.681c-1.923-0.133-3.862-0.172-5.818-0.001l-13.713,1.235
			c-5.484,0.496-10.467,3.777-12.67,9.945c-71.503,9.753-126.793,71.183-126.793,145.323v40.204c0,2.946,2.388,5.333,5.333,5.333
			c136.189,0,293.145,0,423.914,0c2.946,0,5.333-2.388,5.333-5.333v-40.204C473.29,392.355,418.035,330.983,346.576,321.191z
			 M319.22,320.591l13.713,1.235c3.323,0.3,5.072,4.089,3.138,6.807c0,0,0,0,0,0.003l-32.546,45.789
			c-2.07,2.911-6.034,3.869-9.201,2.247l-29.338-15.027l33.562-33.56C304.004,322.632,311.582,319.914,319.22,320.591z
			 M265.392,398.492h-18.741c-5.02-5.689-7.829-12.805-8.35-20.367l17.728-9.079l17.746,9.089
			C273.251,385.699,270.417,392.808,265.392,398.492z M147.356,100.276c0-49.411,40.198-89.61,89.61-89.61h38.047
			c49.409,0,89.607,40.198,89.607,89.61v50.117c0,2.771-2.255,5.026-5.026,5.026c-2.773,0-5.028-2.255-5.028-5.026l-0.003-10.518
			c-0.554-18.792-11.297-35.779-27.81-44.211c-5.269-3.026-11.891-2.719-16.836,0.771c-24.826,17.35-48.34,13.893-54.372,14.422
			c-18.929,1.599-37.977-3.536-53.57-14.443c-4.953-3.459-11.534-3.752-16.56-0.872c-16.73,8.571-27.461,25.565-28.003,44.51v10.362
			c0,2.771-2.255,5.026-5.028,5.026c-2.771,0-5.026-2.255-5.026-5.026v-50.137H147.356z M159.579,216.081l-1.868-14.524
			c-0.341-2.661-2.607-4.654-5.289-4.654c-8.484,0-15.388-6.904-15.388-15.388s6.904-15.388,15.388-15.388
			c0.088,0,0.162-0.045,0.248-0.05c8.517-0.158,15.405-7.109,15.405-15.663l-0.003-10.208c0.43-14.898,8.935-28.375,22.419-35.286
			c1.68-0.963,3.792-0.862,5.37,0.237c17.511,12.244,38.836,18.057,60.127,16.367c21.234,1.662,42.552-4.128,60.052-16.357
			c1.594-1.12,3.711-1.216,5.628-0.127c13.271,6.784,21.789,20.253,22.226,34.992v10.362c0,8.539,6.864,15.477,15.361,15.658
			c10.394,0.753,15.762,7.809,15.762,15.464c0,8.484-6.904,15.388-15.388,15.388c-2.682,0-4.948,1.992-5.289,4.654l-1.868,14.524
			c-6.219,48.367-47.682,84.841-96.448,84.841S165.799,264.448,159.579,216.081z M208.372,300.429
			c14.445,7.15,30.648,11.159,47.657,11.159c17.014,0,33.221-4.012,47.669-11.166v11.891c-4.693,1.816-9.032,4.574-12.69,8.23
			l-34.972,34.97l-34.973-34.975c-3.661-3.66-7.995-6.415-12.69-8.229v-11.88H208.372z M179.131,321.821l13.711-1.235
			c7.711-0.677,15.221,2.041,20.677,7.495l33.56,33.562l-29.338,15.027c-3.177,1.622-7.13,0.656-9.198-2.25l-32.549-45.789
			C174.059,325.91,175.809,322.121,179.131,321.821z M49.376,466.464c0-68.329,50.643-125.026,116.361-134.595
			c1.51,3.58-0.296-0.011,34.113,48.733c5.098,7.169,14.867,9.598,22.755,5.562l5.466-2.799c1.367,8.031,4.867,15.495,10.233,21.729
			l-22.314,65.878c-0.552,1.632-0.282,3.429,0.724,4.828l18.4,25.533H49.376V466.464z M248.264,501.333l-21.289-29.541
			l21.208-62.607h15.687l21.158,62.61l-21.24,29.539L248.264,501.333L248.264,501.333z M462.624,501.333H276.927l18.361-25.536
			c1.002-1.398,1.273-3.193,0.722-4.822l-22.256-65.859c5.372-6.239,8.836-13.727,10.195-21.771l5.511,2.823
			c7.839,4.015,17.636,1.65,22.758-5.562c34.312-48.61,32.546-45.107,34.068-48.649c65.695,9.59,116.338,66.196,116.338,134.509
			v34.869H462.624z"></path><path fill="#428dff" d="M290.959 247.088c-2.036-2.133-5.409-2.206-7.542-.183-15.429 14.705-39.594 14.7-55.018 0-2.133-2.021-5.503-1.945-7.542.183-2.031 2.133-1.95 5.508.183 7.542 19.548 18.626 50.185 18.63 69.737 0C292.911 252.596 292.991 249.221 290.959 247.088zM287.726 180.541c2.726 1.135 5.843-.161 6.974-2.875 1.727-4.15 7.657-4.189 9.409.003 1.133 2.722 4.263 4.008 6.974 2.87 2.719-1.133 4.005-4.255 2.87-6.974-5.346-12.827-23.705-12.967-29.102.003C283.72 176.286 285.006 179.409 287.726 180.541zM224.33 180.541c2.719-1.131 4.005-4.253 2.875-6.974-5.365-12.9-23.738-12.882-29.104 0-1.131 2.719.156 5.841 2.875 6.974 2.717 1.133 5.839-.156 6.974-2.875 1.725-4.146 7.658-4.197 9.407 0C218.487 180.382 221.604 181.676 224.33 180.541z"></path></svg>