<svg xmlns="http://www.w3.org/2000/svg" viewBox="0 0 64 64" id="bed"><path fill="#f1b974" d="M59.3 29.6H4.7V8.9c18.2-2.1 36.4-2.1 54.5 0l.1 20.7z"></path><path fill="#eff3f5" d="M60.7 38.3H3.3l1.4-8.7h54.6z"></path><path fill="#d08230" d="M64 56.7h-5l-1.6-4.5H6.6L5 56.7H0V38.3h3.2c19.2-2 38.4-2 57.6 0H64v18.4z"></path><path fill="#dd655b" d="M26.7 29.6H12.8c-.6 0-1.1-.5-1.1-1.1v-6.8c0-.6.5-1.1 1.1-1.1h13.9c.6 0 1.1.5 1.1 1.1v6.8c0 .6-.5 1.1-1.1 1.1zm24.5 0H37.3c-.6 0-1.1-.5-1.1-1.1v-6.8c0-.6.5-1.1 1.1-1.1h13.9c.6 0 1.1.5 1.1 1.1v6.8c0 .6-.5 1.1-1.1 1.1z"></path></svg>