<svg xmlns="http://www.w3.org/2000/svg" data-name="Layer 1" viewBox="0 0 512 512" id="fire-extinguisher"><path fill="#595f74" d="M139.21 245.971a7.5 7.5 0 0 1-5.514-12.582l29.252-31.742a66.495 66.495 0 0 0 17.489-41.75l.039-.806a81.382 81.382 0 0 1 62.032-75.125l62.379-15.188a7.5 7.5 0 0 1 3.549 14.575l-62.38 15.188a66.766 66.766 0 0 0-50.597 61.26l-.04.833a81.525 81.525 0 0 1-21.44 51.178l-29.251 31.742a7.48 7.48 0 0 1-5.518 2.417Z"></path><path fill="#595f74" d="m301.665 53.556 69.61-41.418a30 30 0 0 1 41.121 10.441l-95.391 56.759-15.34-25.782Z"></path><path fill="#595f74" d="m314.14 62.114 110.578 9.675a30 30 0 0 1-32.5 27.27L311.526 92l2.615-29.886Z"></path><path fill="#f66" d="M335.282 96.4V84.5h-59v11.9a35.08 35.08 0 0 1-25 33.6 35.08 35.08 0 0 0-25 33.6v310.9a30 30 0 0 0 30 30h99a30 30 0 0 0 30-30V163.6a35.08 35.08 0 0 0-25-33.6 35.08 35.08 0 0 1-25-33.6Z"></path><path fill="#ff4e4e" d="M360.282 130a35.08 35.08 0 0 1-25-33.6V84.5h-45v11.9a35.08 35.08 0 0 0 25 33.6 35.08 35.08 0 0 1 25 33.6v310.9a30 30 0 0 1-30 30h45a30 30 0 0 0 30-30V163.6a35.08 35.08 0 0 0-25-33.6Z"></path><circle cx="305.782" cy="84.5" r="31" fill="#4a4f60"></circle><path fill="#3b3f4d" d="M305.782 53.5a30.904 30.904 0 0 0-11.31 2.138 30.999 30.999 0 0 1 0 57.724 31 31 0 1 0 11.31-59.862Z"></path><path fill="#ffe966" d="M226.282 196.5h159v240h-159z"></path><path fill="#ffe236" d="M340.282 196.5h45v240h-45z"></path><path fill="#f66" d="M226.282 226.5h159v180h-159z"></path><path fill="#ff4e4e" d="M340.282 226.5h45v180h-45z"></path><path fill="#4a4f60" d="M60.546 345.604 30.21 315.27a10 10 0 0 1 .738-14.81l101.117-82.732a10 10 0 0 1 13.403.669l11.95 11.95a10 10 0 0 1 .669 13.403L75.356 344.866a10 10 0 0 1-14.81.738Z"></path><path fill="#3b3f4d" d="m157.42 230.346-11.951-11.95a10 10 0 0 0-13.403-.669l-4.621 3.78 8.838 8.839a10 10 0 0 1 .668 13.403l-80.217 98.044 3.812 3.811a10 10 0 0 0 14.81-.738l82.732-101.117a10 10 0 0 0-.669-13.403Z"></path></svg>