<svg xmlns="http://www.w3.org/2000/svg" width="512" height="512" fill-rule="evenodd" clip-rule="evenodd" image-rendering="optimizeQuality" shape-rendering="geometricPrecision" text-rendering="geometricPrecision" viewBox="0 0 512 512" id="oven"><polygon fill="#fcd786" points="287 89 323 89 323 74 287 74"></polygon><polygon fill="#fcd786" points="245 89 245 74 209 74 209 89"></polygon><path fill="#fcd786" d="M163 81c0-7-6-14-14-14-7 0-14 7-14 14 0 6 4 11 8 13l0-13c0-3 3-6 6-6 4 0 6 3 6 6l0 13c5-2 8-7 8-13zM382 67c-7 0-14 7-14 14 0 6 4 11 8 13l0-13c0-3 3-6 6-6 4 0 6 3 6 6l0 13c5-2 8-7 8-13 1-7-6-14-14-14z"></path><polygon fill="#5382aa" points="404 469 363 469 363 500 404 500"></polygon><polygon fill="#5382aa" points="169 500 169 469 127 469 127 500"></polygon><polygon fill="#5382aa" points="121 457 175 457 357 457 410 457 432 457 432 426 100 426 100 457"></polygon><path fill="#fcd786" d="M100 414l332 0 0 -76 -332 0 0 76zm242 -32l-152 0c-3,0 -6,-3 -6,-6 0,-4 3,-6 6,-6l152 0c3,0 6,2 6,6 0,3 -3,6 -6,6z"></path><path fill="#5382aa" d="M100 326l332 0 0 -53 -29 0 0 19c0,4 -3,6 -6,6l-97 0 -68 0 -97 0c-3,0 -6,-2 -6,-6l0 -19 -29 0 0 53z"></path><path fill="#fcd786" d="M141 286l85 0 0 -7c0,-3 1,-6 3,-9 -12,-5 -20,-16 -20,-30l0 -26c0,-3 3,-6 6,-6l102 0c3,0 6,3 6,6l0 26c0,14 -8,25 -20,30 2,3 2,6 2,9l0 7 86 0 0 -19 0 -76 0 -20 -54 0 0 5c0,9 -7,17 -17,17l-108 0c-10,0 -17,-8 -17,-17l0 -5 -54 0 0 20 0 76 0 19z"></path><polygon fill="#fcd786" points="129 261 129 197 100 197 100 261"></polygon><path fill="#5382aa" d="M221 220l0 20c0 11 9 20 20 20l4 0 41 0 5 0c11 0 20-9 20-20l0-20-90 0zM287 272l-42 0c-3 0-7 4-7 7l0 7 56 0 0-7c0-4-4-7-7-7z"></path><polygon fill="#fcd786" points="403 197 403 261 432 261 432 197"></polygon><path fill="#5382aa" d="M320 181c3,0 5,-3 5,-5l0 -5 -118 0 0 5c0,2 2,4 5,4l108 1z"></path><path fill="#5382aa" d="M135 159l262 0c3 0 6 3 6 6l0 20 29 0 0-54-332 0 0 54 29 0 0-20c0-3 3-6 6-6zM382 107c-14 0-26-11-26-26 0-14 12-26 26-26 15 0 26 12 26 26 1 15-11 26-26 26zm-47-39l0 27c0 3-3 6-6 6l-48 0c-3 0-6-3-6-6l0-27c0-3 3-6 6-6l48 0c3 0 6 3 6 6zm-78 0l0 27c0 3-3 6-6 6l-48 0c-3 0-6-3-6-6l0-27c0-3 3-6 6-6l48 0c3 0 6 3 6 6zm-79-25l-49 0-29 0 0 76 332 0 0-76-29 0-49 0-50 0-77 0-49 0zm-3 38c0 15-11 26-26 26-14 0-26-11-26-26 0-14 12-26 26-26 15 0 26 12 26 26z"></path><path fill="#3d3d3d" d="M113 32l0 -13c0,-11 10,-19 22,-19 3,0 6,3 6,6 0,3 -3,6 -6,6 -5,0 -10,3 -10,7l0 13 37 0 0 -25c0,-4 3,-6 6,-6 0,0 0,0 0,0 4,0 6,2 6,6l0 25 37 0 0 -13c0,-4 -4,-7 -9,-7 -4,0 -6,-3 -6,-6 0,-3 2,-6 6,-6 12,0 21,8 21,19l0 13 65 0 0 -13c0,-11 10,-19 22,-19 4,0 6,3 6,6 0,3 -2,6 -6,6 -5,0 -10,3 -10,7l0 13 38 0 0 -25c0,-4 2,-6 6,-6 3,0 6,2 6,6l0 25 37 0 0 -13c0,-4 -5,-7 -10,-7 -3,0 -6,-3 -6,-6 0,-3 3,-6 6,-6 12,0 22,8 22,19l0 13 29 0c3,0 6,2 6,6l0 87 0 66 0 76 0 65 0 88 0 43c0,4 -3,6 -6,6l-22 0 0 37c0,3 -2,6 -6,6l-53 0c-4,0 -6,-3 -6,-6l0 -37 -170 0 0 37c0,3 -3,6 -6,6l-54 0c-3,0 -6,-3 -6,-6l0 -37 -21 0c-3,0 -6,-2 -6,-6l0 -43 0 0 0 -88 0 -65 0 -76 0 -66 0 -87c0,-4 3,-6 6,-6l29 0zm309 394l-332 0 0 31 21 0 54 0 182 0 53 0 22 0 0 -31zm0 -12l0 -76 -332 0 0 76 332 0zm0 -295l0 -76 -29 0 -49 0 -50 0 -77 0 -49 0c0,0 0,0 0,0l-49 0 -29 0 0 76 332 0zm-332 207l332 0 0 -53 -29 0 0 19c0,4 -3,6 -6,6l-97 0 -68 0 -97 0c-3,0 -6,-2 -6,-6l0 -19 -29 0 0 53zm332 -65l0 -64 -29 0 0 64 29 0zm0 -76l0 -54 -332 0 0 54 29 0 0 -20c0,-3 3,-6 6,-6l262 0c3,0 6,3 6,6l0 20 29 0zm-332 12l0 64 29 0 0 -64 -29 0zm41 89l85 0 0 -7c0,-3 1,-6 3,-9 -12,-5 -20,-16 -20,-30l0 -26c0,-3 3,-6 6,-6l102 0c3,0 6,3 6,6l0 26c0,14 -8,25 -20,30 2,3 2,6 2,9l0 7 86 0 0 -19 0 -76 0 -20 -54 0 0 5c0,9 -7,17 -17,17l-108 0c-10,0 -17,-8 -17,-17l0 -5 -54 0 0 20 0 76 0 19zm-14 214l42 0 0 -31 -42 0 0 31zm236 0l41 0 0 -31 -41 0 0 31zm-214 -393c-14,0 -26,-11 -26,-26 0,-14 12,-26 26,-26 15,0 26,12 26,26 0,15 -11,26 -26,26zm0 -40c-7,0 -14,7 -14,14 0,6 4,11 8,13l0 -13c0,-3 3,-6 6,-6 4,0 6,3 6,6l0 13c5,-2 8,-7 8,-13 0,-7 -6,-14 -14,-14zm233 40c-14,0 -26,-11 -26,-26 0,-14 12,-26 26,-26 15,0 26,12 26,26 1,15 -11,26 -26,26zm0 -40c-7,0 -14,7 -14,14 0,6 4,11 8,13l0 -13c0,-3 3,-6 6,-6 4,0 6,3 6,6l0 13c5,-2 8,-7 8,-13 1,-7 -6,-14 -14,-14zm-175 104l0 5c0,2 2,4 5,4l108 1c3,0 5,-3 5,-5l0 -5 -118 0zm44 -70l-48 0c-3,0 -6,-3 -6,-6l0 -27c0,-3 3,-6 6,-6l48 0c3,0 6,3 6,6l0 27c0,3 -3,6 -6,6zm-42 -12l36 0 0 -15 -36 0 0 15zm120 12l-48 0c-3,0 -6,-3 -6,-6l0 -27c0,-3 3,-6 6,-6l48 0c3,0 6,3 6,6l0 27c0,3 -3,6 -6,6zm-42 -12l36 0 0 -15 -36 0 0 15zm-66 131l0 20c0,11 9,20 20,20l4 0 41 0 5 0c11,0 20,-9 20,-20l0 -20 -90 0zm17 66l56 0 0 -7c0,-4 -4,-7 -7,-7l-42 0c-3,0 -7,4 -7,7l0 7 0 0zm104 96l-152 0c-3,0 -6,-3 -6,-6 0,-4 3,-6 6,-6l152 0c3,0 6,2 6,6 0,3 -3,6 -6,6z"></path></svg>