<svg xmlns="http://www.w3.org/2000/svg" enable-background="new 0 0 64 64" viewBox="0 0 64 64" id="refrigerator"><path fill="#e3e3e3" d="M48.9,62.5H17.1c-0.8,0-1.5-0.7-1.5-1.5V2.1c0-0.8,0.7-1.5,1.5-1.5h31.8c0.8,0,1.5,0.7,1.5,1.5V61
		C50.4,61.8,49.7,62.5,48.9,62.5z"></path><rect width="34.8" height=".9" x="15.6" y="36.6" fill="#3f3f3f"></rect><rect width=".4" height="36" x="32.7" y=".6" fill="#3f3f3f"></rect><rect width="32.3" height="1.6" x="16.8" y="63.1" fill="#3f3f3f"></rect><rect width="1" height="18.6" x="19.8" y="40.5" fill="#3f3f3f"></rect><path fill="#3a444d" d="M27.4 24.4h-6.2c-.4 0-.6-.3-.6-.6V13.5c0-.4.3-.6.6-.6h6.2c.4 0 .6.3.6.6v10.3C28.1 24.1 27.8 24.4 27.4 24.4zM44.9 24.4h-6.2c-.4 0-.6-.3-.6-.6V13.5c0-.4.3-.6.6-.6h6.2c.4 0 .6.3.6.6v10.3C45.6 24.1 45.3 24.4 44.9 24.4z"></path><rect width="6.5" height="1.9" x="38.6" y="12.9" fill="#c3c3c3"></rect><rect width="4.4" height=".6" x="39.7" y="14.8" fill="#e1e1e1"></rect><path fill="#c3c3c3" d="M43,15.4V19c0,0.4-0.3,0.7-0.7,0.7h-1.1c-0.4,0-0.7-0.3-0.7-0.7v-3.6H43z"></path><path fill="#e3e3e3" d="M43,15.4V19c0,0.4-0.3,0.7-0.7,0.7h-0.6c-0.4,0-0.7-0.3-0.7-0.7v-3.6H43z"></path><g opacity=".56"><path fill="#fff" d="M48.3,40.7c-0.1-0.1-0.1-0.2-0.2-0.3c2.4,3.7-0.6,10.3-6.8,14.9S27.8,60.9,25,57.6c0.1,0.1,0.1,0.2,0.2,0.3
			c2.7,3.6,10.1,2.8,16.4-2S51,44.4,48.3,40.7z"></path></g><g><rect width="2.8" height="2.8" x="21.4" y="14.4" fill="#2d9eee"></rect><rect width="2.8" height="2.8" x="24.4" y="14.4" fill="#f87d7f"></rect><rect width="2.8" height="2.8" x="24.4" y="17.5" fill="#e29d50"></rect><rect width="2.8" height="2.8" x="21.4" y="17.5" fill="#dffab5"></rect><rect width="2.8" height="2.3" x="21.4" y="20.4" fill="#bf90ff"></rect><rect width="2.8" height="2.3" x="24.4" y="20.4" fill="#eeb6f7"></rect></g></svg>