<svg xmlns="http://www.w3.org/2000/svg" enable-background="new 0 0 64 64" viewBox="0 0 64 64" id="refrigerator"><path fill="#ffcd7e" d="M62.879,51.885v10.121c0,0.548-0.448,0.996-0.996,0.996h-3.596c-0.488,0-0.887-0.349-0.976-0.827c-0.389-1.833-2.012-3.217-3.965-3.217H36.741c-1.116,0-2.132,0.458-2.859,1.185c-0.548,0.548-0.936,1.245-1.096,2.032c-0.1,0.478-0.498,0.827-0.986,0.827h-3.596c-0.548,0-0.996-0.448-0.996-0.996V51.885H62.879z"></path><path fill="#fff" d="M62.876,19.519v32.364c0,1.644-1.335,2.988-2.988,2.988H30.193c-1.654,0-2.988-1.345-2.988-2.988V19.519H62.876z"></path><path fill="#fff" d="M62.875,19.523V3.984c0-1.65-1.338-2.988-2.988-2.988H30.192c-1.65,0-2.988,1.338-2.988,2.988v15.539H62.875z"></path><g><rect width="18.139" height="18.139" x="1.119" y="1.242" fill="#ffcd7e"></rect><line x1="1.119" x2="19.259" y1="10.312" y2="10.312" fill="#4de2c9"></line><line x1="10.189" x2="10.189" y1="1.242" y2="19.381" fill="#4de2c9"></line></g><g><path fill="#ff787d" d="M14.846,54.027l-1.315,7.64c-0.13,0.767-0.807,1.335-1.584,1.335H5.602c-0.787,0-1.454-0.568-1.594-1.335l-1.305-7.64H14.846z"></path><path fill="#fff" d="M16.078,50.958v2.364c0,0.39-0.31,0.708-0.7,0.708H2.166c-0.39,0-0.7-0.318-0.7-0.708v-2.364c0-0.39,0.31-0.7,0.7-0.7h13.212C15.768,50.258,16.078,50.568,16.078,50.958z"></path><g><path fill="#4de2c9" d="M14.232 44.712c-2.114 2.114-5.46 2.192-5.46 2.192s.073-3.35 2.188-5.465 5.465-2.188 5.465-2.188S16.346 42.597 14.232 44.712zM3.312 40.241c2.114 2.114 5.46 2.192 5.46 2.192s-.073-3.35-2.188-5.465-5.465-2.188-5.465-2.188S1.197 38.126 3.312 40.241z"></path><path fill="#33226e" d="M63.871,3.985C63.871,1.787,62.084,0,59.886,0H30.191c-2.198,0-3.985,1.787-3.985,3.985c0.003,85.548-0.001-4.905,0.007,58.023c0,1.096,0.897,1.992,1.992,1.992h3.596c0.956,0,1.763-0.667,1.962-1.624c0.12-0.578,0.398-1.106,0.827-1.524c0.568-0.578,1.335-0.896,2.152-0.896h16.605c1.434,0,2.69,1.016,2.988,2.401C56.506,63.313,57.332,64,58.289,64h3.596c1.096,0,1.992-0.897,1.992-1.992C63.869-1.362,63.873,102.354,63.871,3.985z M28.201,51.884V20.519h33.679v31.364c0,1.099-0.894,1.992-1.992,1.992H30.193C29.095,53.876,28.201,52.983,28.201,51.884z M30.191,1.992h29.695c1.098,0,1.992,0.893,1.992,1.992v14.539h-33.68V3.985C28.199,2.886,29.093,1.992,30.191,1.992z M58.289,61.968c-0.498-2.321-2.57-4.004-4.941-4.004H36.742c-1.345,0-2.61,0.518-3.566,1.474c-0.697,0.697-1.175,1.574-1.375,2.57h-3.596v-6.691c0.587,0.341,1.26,0.552,1.988,0.552h29.694c0.731,0,1.408-0.212,1.997-0.557v6.696L58.289,61.968z"></path><path fill="#33226e" d="M32.195 31.876c.551 0 .996-.446.996-.996V24.5c0-.55-.446-.996-.996-.996-.551 0-.996.446-.996.996v6.379C31.199 31.43 31.644 31.876 32.195 31.876zM32.195 15.539c.551 0 .996-.446.996-.996v-4.324c0-.55-.446-.996-.996-.996-.551 0-.996.446-.996.996v4.324C31.199 15.093 31.644 15.539 32.195 15.539zM19.259.246H1.12c-.551 0-.996.446-.996.996v18.139c0 .55.446.996.996.996h18.139c.551 0 .996-.446.996-.996V1.242C20.255.692 19.81.246 19.259.246zM18.263 9.315h-7.078V2.238h7.078V9.315zM9.193 2.238v7.077H2.116V2.238H9.193zM2.116 11.308h7.077v7.077H2.116V11.308zM11.185 18.385v-7.077h7.078v7.077H11.185zM14.936 45.416c2.37-2.369 2.481-5.988 2.484-6.141.011-.521-.362-.99-1.018-1.019-.154.003-3.777.11-6.148 2.48C10.04 40.95 9.85 41.177 9.67 41.409c-.189-1.277-.746-3.509-2.382-5.145-2.37-2.37-5.993-2.476-6.147-2.48-.58-.007-1.03.46-1.018 1.019.004.153.115 3.771 2.484 6.141 1.648 1.648 3.898 2.202 5.168 2.389v5.927h-5.61c-.936 0-1.697.761-1.697 1.697v2.364c0 .834.6 1.527 1.39 1.673l1.17 6.851c.228 1.247 1.31 2.152 2.574 2.152h6.345c1.255 0 2.358-.931 2.565-2.162l1.177-6.841c.787-.148 1.385-.84 1.385-1.673v-2.364c0-.935-.761-1.697-1.697-1.697h-5.61v-1.457C11.038 47.618 13.288 47.064 14.936 45.416zM11.948 62.006H5.602c-.302 0-.559-.218-.613-.507l-1.104-6.473h9.778l-1.114 6.475C12.5 61.789 12.242 62.006 11.948 62.006zM15.082 53.034c-1.65 0-13.371-.001-12.621 0v-1.78h12.621V53.034zM11.664 42.143c1.083-1.082 2.588-1.549 3.619-1.748-.199 1.026-.665 2.523-1.755 3.612-1.081 1.081-2.582 1.549-3.611 1.751C10.116 44.727 10.583 43.225 11.664 42.143zM4.016 39.537c-1.081-1.081-1.549-2.582-1.75-3.611 1.031.2 2.533.667 3.614 1.748 1.081 1.081 1.548 2.583 1.748 3.614C6.597 41.085 5.096 40.618 4.016 39.537z"></path></g></g></svg>