<svg xmlns="http://www.w3.org/2000/svg" data-name="Layer 1" viewBox="0 0 512 512" id="review"><path fill="#ffe236" d="M458.31 242.32a7.27 7.27 0 0 0-2.09 6.42l10.63 61.97a7.248 7.248 0 0 1-10.52 7.64l-55.65-29.25a6.777 6.777 0 0 0-6.5 0l-40.86 21.47-14.8 7.78a7.25 7.25 0 0 1-10.52-7.64l10.63-61.97a7.236 7.236 0 0 0-2.08-6.42l-45.03-43.88a7.252 7.252 0 0 1 4.02-12.37l16.64-2.42 19.83-2.88-.02-.03 25.53-3.71a7.282 7.282 0 0 0 5.46-3.97l27.82-56.38a7.452 7.452 0 0 1 13.25 0l27.83 56.38a7.265 7.265 0 0 0 5.46 3.97l25.52 3.71-.01.03 36.46 5.3a7.25 7.25 0 0 1 4.02 12.37Z"></path><path fill="#ffd00b" d="M503.33 198.44a7.25 7.25 0 0 0-4.02-12.37l-36.46-5.3.01-.03-25.52-3.71a7.265 7.265 0 0 1-5.46-3.97l-27.83-56.38a7.452 7.452 0 0 0-13.25 0l-2.166 4.39a7.47 7.47 0 0 1 .416.71l27.83 56.38a7.265 7.265 0 0 0 5.46 3.97l25.52 3.71-.01.03 36.46 5.3a7.25 7.25 0 0 1 4.02 12.37l-45.02 43.88a7.27 7.27 0 0 0-2.09 6.42l10.63 61.97c.012.066.01.13.02.196l4.46 2.344a7.248 7.248 0 0 0 10.52-7.64l-10.63-61.97a7.27 7.27 0 0 1 2.09-6.42Z"></path><path fill="#ffe236" d="M175.45 242.32a7.236 7.236 0 0 0-2.08 6.42L184 310.71a7.25 7.25 0 0 1-10.52 7.64l-16.96-8.91-38.7-20.34a6.777 6.777 0 0 0-6.5 0l-55.65 29.25a7.248 7.248 0 0 1-10.52-7.64l10.63-61.97a7.27 7.27 0 0 0-2.09-6.42L8.67 198.44a7.25 7.25 0 0 1 4.02-12.37l36.46-5.3-.01-.03 25.52-3.71a7.265 7.265 0 0 0 5.46-3.97l27.83-56.38a7.452 7.452 0 0 1 13.25 0l27.82 56.38a7.282 7.282 0 0 0 5.46 3.97l25.53 3.71-.02.03 17.1 2.49 19.37 2.81a7.252 7.252 0 0 1 4.02 12.37Z"></path><path fill="#ffd00b" d="m416.2 229.04-62.1 60.52a10.018 10.018 0 0 0-2.87 8.86l2.09 12.15-14.8 7.78a7.25 7.25 0 0 1-10.52-7.64l10.63-61.97a7.236 7.236 0 0 0-2.08-6.42l-45.03-43.88a7.252 7.252 0 0 1 4.02-12.37l16.64-2.42 5.13 10.39a10.014 10.014 0 0 0 7.53 5.47l85.82 12.47a10.003 10.003 0 0 1 5.54 17.06zm-240.75 13.28a7.236 7.236 0 0 0-2.08 6.42L184 310.71a7.25 7.25 0 0 1-10.52 7.64l-16.96-8.91 2.19-12.75a10.01 10.01 0 0 0-2.87-8.85l-62.1-60.53a10.005 10.005 0 0 1 5.54-17.06l85.82-12.46a9.993 9.993 0 0 0 7.52-5.48l4.47-9.05 19.37 2.81a7.252 7.252 0 0 1 4.02 12.37z"></path><path fill="#ffe236" d="m263.936 120.05 38.377 77.76a10 10 0 0 0 7.53 5.47l85.813 12.47a10 10 0 0 1 5.542 17.056l-62.095 60.528a10 10 0 0 0-2.876 8.851l14.658 85.467a10 10 0 0 1-14.51 10.541l-76.753-40.351a10 10 0 0 0-9.306 0l-76.754 40.351a10 10 0 0 1-14.51-10.542l14.66-85.466a10 10 0 0 0-2.877-8.851l-62.095-60.528a10 10 0 0 1 5.543-17.057l85.813-12.469a10 10 0 0 0 7.529-5.47l38.377-77.76a10 10 0 0 1 17.934 0Z"></path><path fill="#272a33" d="M512.3 188.685a14.66 14.66 0 0 0-11.907-10.039l-35.737-5.193q-.353-.086-.717-.14l-25.393-3.69-27.769-56.266a14.955 14.955 0 0 0-26.7.001l-27.767 56.265-25.394 3.69a7.195 7.195 0 0 0-.71.14l-29.439 4.277-30.105-61a17.5 17.5 0 0 0-31.386 0l-29.967 60.72-27.508-3.997q-.353-.086-.717-.14l-25.393-3.69-27.77-56.264a14.954 14.954 0 0 0-26.7 0l-27.768 56.264-25.392 3.69a7.195 7.195 0 0 0-.711.14l-35.743 5.193a14.75 14.75 0 0 0-8.175 25.16l44.93 43.797-10.607 61.84a14.733 14.733 0 0 0 21.403 15.551l55.414-29.134 48.263 25.374-11.174 65.149a17.5 17.5 0 0 0 25.392 18.449l76.754-40.353a2.492 2.492 0 0 1 2.325.001l76.754 40.352a17.5 17.5 0 0 0 25.391-18.448l-11.004-64.162 50.155-26.362 55.415 29.134a14.75 14.75 0 0 0 21.401-15.55l-10.605-61.842 44.93-43.796a14.659 14.659 0 0 0 3.732-15.12ZM166.32 300.918l-.819 4.77-44.187-23.229a14.8 14.8 0 0 0-6.618-1.687 5.128 5.128 0 0 0-.248 0 14.81 14.81 0 0 0-6.618 1.686l-55.205 29.023 10.544-61.473a14.75 14.75 0 0 0-4.243-13.055l-44.661-43.536 35.964-5.226a7.202 7.202 0 0 0 .71-.139l24.8-3.603a14.745 14.745 0 0 0 11.108-8.07l27.725-56.177 27.725 56.176a14.745 14.745 0 0 0 11.107 8.07l24.794 3.603c.237.058.475.105.718.14l23.413 3.402-1.43 2.897a2.502 2.502 0 0 1-1.881 1.368l-85.814 12.47a17.5 17.5 0 0 0-9.7 29.85l62.098 60.528a2.5 2.5 0 0 1 .717 2.212Zm176.178 90.446a2.398 2.398 0 0 1-2.632.19l-76.753-40.35a17.489 17.489 0 0 0-16.288 0l-76.752 40.35a2.501 2.501 0 0 1-3.629-2.635l14.659-85.465a17.495 17.495 0 0 0-5.033-15.491l-62.094-60.527a2.5 2.5 0 0 1 1.384-4.265l85.815-12.469a17.5 17.5 0 0 0 13.176-9.573l38.377-77.76a2.5 2.5 0 0 1 4.483 0l38.376 77.758a17.497 17.497 0 0 0 13.178 9.575l85.812 12.47a2.5 2.5 0 0 1 1.385 4.264l-62.095 60.527a17.5 17.5 0 0 0-5.032 15.49l2.742 15.986.01.06 11.906 69.42a2.401 2.401 0 0 1-.995 2.445Zm110.577-154.412a14.74 14.74 0 0 0-4.242 13.057l10.542 61.472-55.204-29.022a14.806 14.806 0 0 0-6.62-1.687 5.126 5.126 0 0 0-.247 0 14.804 14.804 0 0 0-6.617 1.686l-46.08 24.22-.988-5.759a2.497 2.497 0 0 1 .719-2.214l62.095-60.528a17.5 17.5 0 0 0-9.7-29.85l-85.811-12.469a2.5 2.5 0 0 1-1.883-1.368l-1.292-2.617 25.337-3.682a7.201 7.201 0 0 0 .71-.139l24.8-3.603a14.745 14.745 0 0 0 11.108-8.07l27.726-56.178 27.724 56.177a14.745 14.745 0 0 0 11.108 8.07l24.794 3.603c.236.058.474.105.717.14l35.965 5.227Z"></path></svg>