<svg xmlns="http://www.w3.org/2000/svg" viewBox="0 0 64 64" id="shower"><path fill="#1379c2" d="M38.1 15.4C37 9.7 32 5.5 26.2 5.5 19.5 5.5 14 10.9 14 17.6v43.2c0 1.2-1 2.3-2.2 2.3-1.2 0-2.3-1-2.3-2.3V17.6C9.5 8.5 17 1 26.2 1c8.3 0 15.4 6.2 16.5 14.4h-4.6z"></path><path fill="#ccc" d="M38.3 38.1c0-1.2 1-2.2 2.3-2.2 1.2 0 2.2 1 2.2 2.2v6.6c0 1.2-1 2.2-2.2 2.2-1.2 0-2.3-1-2.3-2.2v-6.6zm8.6 0c0-1.2 1-2.2 2.2-2.2 1.2 0 2.3 1 2.3 2.2v6.6c0 1.2-1 2.2-2.3 2.2-1.2 0-2.2-1-2.2-2.2v-6.6zm-17.1 0c0-1.2 1-2.2 2.2-2.2 1.2 0 2.2 1 2.2 2.2v6.6c0 1.2-1 2.2-2.2 2.2-1.2 0-2.2-1-2.2-2.2v-6.6z"></path><path d="M37.4 38.1c0-1.8 1.4-3.2 3.2-3.2 1.8 0 3.2 1.4 3.2 3.2v6.6c0 1.8-1.4 3.2-3.2 3.2-1.8 0-3.2-1.4-3.2-3.2v-6.6zm1.9 0v6.6c0 .7.6 1.3 1.3 1.3.7 0 1.3-.6 1.3-1.3v-6.6c0-.7-.6-1.3-1.3-1.3-.7 0-1.3.6-1.3 1.3zm6.6 0c0-1.8 1.4-3.2 3.2-3.2 1.8 0 3.2 1.4 3.2 3.2v6.6c0 1.8-1.4 3.2-3.2 3.2-1.8 0-3.2-1.4-3.2-3.2v-6.6zm1.9 0v6.6c0 .7.6 1.3 1.3 1.3.7 0 1.3-.6 1.3-1.3v-6.6c0-.7-.6-1.3-1.3-1.3-.7 0-1.3.6-1.3 1.3zm-19 0c0-1.8 1.4-3.2 3.2-3.2 1.8 0 3.2 1.4 3.2 3.2v6.6c0 1.8-1.4 3.2-3.2 3.2-1.8 0-3.2-1.4-3.2-3.2v-6.6zm2 0v6.6c0 .7.6 1.3 1.3 1.3.7 0 1.3-.6 1.3-1.3v-6.6c0-.7-.6-1.3-1.3-1.3-.8 0-1.3.6-1.3 1.3z"></path><path fill="#358dcc" d="M42.4 14.4h4c.9 0 1.7.5 2.1 1.4L54.3 30c.1.3.2.5.2.8 0 1.2-1 2.2-2.2 2.2l-23.6.2c-.3 0-.6 0-1-.2-1.1-.5-1.7-1.8-1.2-2.9L32.1 16c.3-.9 1.1-1.6 2.1-1.6h8.2z"></path><path fill="#1379c2" d="M41.8 14.4h2.7c.6 0 1.2.5 1.4 1.4L49.8 30c.1.3.1.5.1.8 0 1.2-.7 2.2-1.5 2.2l-16 .2c-.2 0-.4 0-.7-.2-.8-.5-1.2-1.8-.8-2.9L34.7 16c.2-.9.8-1.6 1.4-1.6h5.7z"></path><path d="M43.3 13.4h3.2c1.3 0 2.4.7 3 2l5.8 14.2c.5 1.1.3 2.4-.7 3.5-.6.6-1.4.9-2.3.9l-11.9.1-7.9.1h-3.8c-1.3.1-2.6-.7-3.1-1.9-.3-.8-.4-1.6 0-2.5l5.7-14.2c.4-1.3 1.6-2.2 3-2.2h2.3c-1.7-4.2-5.8-7-10.4-7C20 6.4 15 11.5 15 17.6v43.2c0 1.8-1.4 3.2-3.2 3.2s-3.2-1.4-3.2-3.2V17.6C8.6 7.9 16.5 0 26.2 0c8.1 0 15.2 5.6 17.1 13.4zm-4.7 0h2.7C39.4 6.7 33.2 1.9 26.2 1.9c-8.6 0-15.7 7.1-15.7 15.7v43.2c0 .7.6 1.3 1.3 1.3.7 0 1.3-.6 1.3-1.3V17.6c0-7.2 5.9-13.1 13.1-13.1 5.6 0 10.6 3.6 12.4 8.9zm-2.4 2c-.3.1-.4.6-.5.9l-3.9 14.2c-.1.5-.1 1.5.4 1.8l8.1-.1 8.1-.1c.1 0 .2-.1.3-.2.5-.8.2-1.6 0-2.4L45 16.1c0-.1-.3-.7-.5-.7h-8.3zm10.6 0 3.9 14.4c.2.8.2 1.5-.1 2.4h1.6c1.7 0 1.2-1.6.8-2.6l-5.4-13.4c-.1-.4-.4-.7-.8-.8zM30 32.3v-.1c-.2-.7-.2-1.5 0-2.2l3.8-14.2c0-.1.1-.2.1-.3-.2 0-.3.1-.4.2-.3.2-.4.4-.5.7l-5.7 14.2c-.3.6 0 1.4.7 1.6.4.2 1.6.1 2 .1z"></path></svg>