<svg xmlns="http://www.w3.org/2000/svg" enable-background="new 0 0 32 32" viewBox="0 0 32 32" id="smoke-detector"><path fill="none" stroke="#000" stroke-linecap="round" stroke-linejoin="round" stroke-miterlimit="10" stroke-width="2" d="M28,9H4C3.448,9,3,8.552,3,8V3h26v5C29,8.552,28.552,9,28,9z"></path><circle cx="16" cy="6" r="1"></circle><polygon fill="none" stroke="#000" stroke-linecap="round" stroke-linejoin="round" stroke-miterlimit="10" stroke-width="2" points="25 14 7 14 6 9 26 9"></polygon><line x1="16" x2="16" y1="9" y2="11" fill="none" stroke="#000" stroke-linecap="round" stroke-linejoin="round" stroke-miterlimit="10" stroke-width="2"></line><line x1="21" x2="21" y1="9" y2="11" fill="none" stroke="#000" stroke-linecap="round" stroke-linejoin="round" stroke-miterlimit="10" stroke-width="2"></line><line x1="11" x2="11" y1="9" y2="11" fill="none" stroke="#000" stroke-linecap="round" stroke-linejoin="round" stroke-miterlimit="10" stroke-width="2"></line><path fill="none" stroke="#000" stroke-linecap="round" stroke-linejoin="round" stroke-miterlimit="10" stroke-width="2" d="M13 29c.59-1.597 1.542-4.306 3-5 1.597.729 1.722 3.507 2 5 1.667-.833 3.021-2.499 3-4.167-.035-2.674-3.548-3.986-4-6.833-3.437-.035-6 3.922-6 6.833C11 26.453 11.995 28.1 13 29zM7 18c3.464 3.979-3.464 4.021 0 8M25 18c-3.464 3.979 3.464 4.021 0 8"></path></svg>