<svg xmlns="http://www.w3.org/2000/svg" viewBox="0 0 80 80" id="tv"><path d="M71 16H39.914l9.293-9.293a1 1 0 1 0-1.414-1.414L37.5 15.586l-5.293-5.293a1 1 0 1 0-1.414 1.414L35.086 16H9c-2.206 0-4 1.794-4 4v46c0 2.206 1.794 4 4 4h7v4a1 1 0 0 0 1 1h8a1 1 0 0 0 1-1v-4h29v4a1 1 0 0 0 1 1h8a1 1 0 0 0 1-1v-4h6c2.206 0 4-1.794 4-4V20c0-2.206-1.794-4-4-4zM24 73h-6v-3h6v3zm39 0h-6v-3h6v3zm10-7c0 1.103-.897 2-2 2H9c-1.103 0-2-.897-2-2V20c0-1.103.897-2 2-2h62c1.103 0 2 .897 2 2v46z"></path><path d="M47.967 23.099c-10.897-2.806-19.858-2.802-30.928.013a6.963 6.963 0 0 0-4.999 4.878c-2.731 9.911-2.707 19.8.073 29.39a6.956 6.956 0 0 0 4.356 4.63c5.693 2 10.861 3 16.031 3 5.174 0 10.349-1.002 16.048-3.006a6.959 6.959 0 0 0 4.348-4.6c2.776-9.456 2.793-19.35.051-29.409a6.965 6.965 0 0 0-4.98-4.896zm3.009 33.74a4.95 4.95 0 0 1-3.092 3.278c-10.921 3.841-19.832 3.841-30.753.006a4.953 4.953 0 0 1-3.097-3.299c-2.676-9.231-2.698-18.754-.066-28.303a4.964 4.964 0 0 1 3.563-3.471c5.37-1.364 10.226-2.047 15.06-2.047 4.818 0 9.615.678 14.878 2.033a4.959 4.959 0 0 1 3.549 3.485c2.643 9.696 2.628 19.224-.042 28.318zM64 26c-3.309 0-6 2.691-6 6s2.691 6 6 6 6-2.691 6-6-2.691-6-6-6zm0 10c-2.206 0-4-1.794-4-4s1.794-4 4-4 4 1.794 4 4-1.794 4-4 4zm5 9H59a1 1 0 1 0 0 2h10a1 1 0 1 0 0-2zm0 5H59a1 1 0 1 0 0 2h10a1 1 0 1 0 0-2zm0 5H59a1 1 0 1 0 0 2h10a1 1 0 1 0 0-2z"></path></svg>