<svg xmlns="http://www.w3.org/2000/svg" width="32" height="32" id="washing"><path fill="#fff" d="M8.015.5a2.495 2.495 0 0 0-2.5 2.5v24c0 1 .498 2.5 2.5 2.5h15.971c1.027 0 2.5-.5 2.5-2.5V3c0-1.385-1.115-2.5-2.5-2.5z"></path><path fill="#c2e4f8" d="M8.513 29.5h2v2h-2zm13 0h2v2h-2zm-4-25.5a1.5 1.5 0 0 1-1.5 1.5 1.5 1.5 0 0 1-1.5-1.5 1.5 1.5 0 0 1 1.5-1.5 1.5 1.5 0 0 1 1.5 1.5zm-9-1.5h4v3h-4zm14 15.5a6.5 6.5 0 0 1-6.5 6.5 6.5 6.5 0 0 1-6.5-6.5 6.5 6.5 0 0 1 6.5-6.5 6.5 6.5 0 0 1 6.5 6.5z"></path><path fill="#c2e4f8" fill-rule="evenodd" d="M11.513 29.5V28c0-1 .5-1.5 1.5-1.5h6c1 0 1.553.5 1.553 1.5v1.5"></path><path style="line-height:normal;text-indent:0;text-align:start;text-decoration-line:none;text-decoration-style:solid;text-decoration-color:#000;text-transform:none;block-progression:tb;isolation:auto;mix-blend-mode:normal" fill="#249fe6" d="M8.015 1020.362c-1.654 0-3 1.347-3 3v24c0 .583.136 1.308.6 1.926.462.617 1.274 1.074 2.4 1.074h15.97c.595 0 1.323-.137 1.938-.602.615-.464 1.062-1.275 1.062-2.398v-24c0-1.653-1.346-3-3-3H8.015zm0 1h15.97c1.117 0 2 .883 2 2v24c0 .877-.287 1.316-.666 1.602-.378.285-.901.398-1.334.398H8.015c-.876 0-1.313-.291-1.6-.674-.287-.382-.4-.909-.4-1.326v-24c0-1.117.883-2 2-2z" color="#000" font-family="sans-serif" font-weight="400" overflow="visible" transform="translate(0 -1020.362)"></path><path style="line-height:normal;text-indent:0;text-align:start;text-decoration-line:none;text-decoration-style:solid;text-decoration-color:#000;text-transform:none;block-progression:tb;isolation:auto;mix-blend-mode:normal" fill="#249fe6" d="M8.513 1049.362a.5.5 0 0 0-.5.5v2a.5.5 0 0 0 .5.5h2a.5.5 0 0 0 .5-.5v-2a.5.5 0 0 0-.5-.5h-2zm.5 1h1v1h-1v-1zm12.5-1a.5.5 0 0 0-.5.5v2a.5.5 0 0 0 .5.5h2a.5.5 0 0 0 .5-.5v-2a.5.5 0 0 0-.5-.5h-2zm.5 1h1v1h-1v-1zm-6-28c-1.099 0-2 .901-2 2s.901 2 2 2c1.098 0 2-.901 2-2s-.902-2-2-2zm0 1c.558 0 1 .442 1 1s-.442 1-1 1c-.559 0-1-.442-1-1s.441-1 1-1z" color="#000" font-family="sans-serif" font-weight="400" overflow="visible" transform="translate(0 -1020.362)"></path><path fill="#249fe6" d="M9.013 7.5a.5.5 0 0 1-.5.5.5.5 0 0 1-.5-.5.5.5 0 0 1 .5-.5.5.5 0 0 1 .5.5zm4 0a.5.5 0 0 1-.5.5.5.5 0 0 1-.5-.5.5.5 0 0 1 .5-.5.5.5 0 0 1 .5.5zm-2 0a.5.5 0 0 1-.5.5.5.5 0 0 1-.5-.5.5.5 0 0 1 .5-.5.5.5 0 0 1 .5.5z"></path><path style="line-height:normal;text-indent:0;text-align:start;text-decoration-line:none;text-decoration-style:solid;text-decoration-color:#000;text-transform:none;block-progression:tb;isolation:auto;mix-blend-mode:normal" fill="#249fe6" d="M8.513 1022.362a.5.5 0 0 0-.5.5v3a.5.5 0 0 0 .5.5h4a.5.5 0 0 0 .5-.5v-3a.5.5 0 0 0-.5-.5h-4zm.5 1h3v2h-3v-2zm7 8c-3.86 0-7 3.14-7 7s3.14 7 7 7 7-3.14 7-7-3.14-7-7-7zm0 1c3.32 0 6 2.68 6 6s-2.68 6-6 6-6-2.68-6-6 2.68-6 6-6z" color="#000" font-family="sans-serif" font-weight="400" overflow="visible" transform="translate(0 -1020.362)"></path><path style="line-height:normal;text-indent:0;text-align:start;text-decoration-line:none;text-decoration-style:solid;text-decoration-color:#000;text-transform:none;block-progression:tb;isolation:auto;mix-blend-mode:normal" fill="#249fe6" fill-rule="evenodd" d="M19.505 1036.184a.5.5 0 0 0-.492.506v3.026a.5.5 0 1 0 1 0v-3.026a.5.5 0 0 0-.508-.506zm-14.465-6.822v1h21.945v-1H5.04zm7.973 17c-.584 0-1.111.154-1.479.521-.368.368-.521.896-.521 1.48v1.5h1v-1.5c0-.418.096-.64.228-.772.132-.133.355-.229.772-.229h5.999c.417 0 .662.1.807.238.146.139.246.354.246.762v1.5h1v-1.5c0-.592-.175-1.125-.556-1.486-.381-.362-.913-.514-1.496-.514h-6z" color="#000" font-family="sans-serif" font-weight="400" overflow="visible" transform="translate(0 -1020.362)"></path></svg>